<?xml version="1.0" encoding="UTF-8"?>
<svg id="Layer_1" data-name="Layer 1" xmlns="http://www.w3.org/2000/svg" viewBox="0 0 496.11 429.91">
  <defs>
    <style>
      .cls-1 {
        fill: #f33385;
      }

      .cls-2 {
        fill: #e4397f;
      }

      .cls-3 {
        fill: #e63884;
      }

      .cls-4 {
        fill: #f882b3;
      }

      .cls-5 {
        fill: #78828b;
      }

      .cls-6 {
        fill: #e63a81;
      }

      .cls-7 {
        fill: #404752;
      }

      .cls-8 {
        fill: #8c5573;
      }

      .cls-9 {
        fill: #4d5661;
      }

      .cls-10 {
        fill: #6e7a84;
      }

      .cls-11 {
        fill: #020203;
      }

      .cls-12 {
        fill: #f13383;
      }

      .cls-13 {
        fill: #df4187;
      }

      .cls-14 {
        fill: #ef3883;
      }

      .cls-15 {
        fill: #ea3688;
      }

      .cls-16 {
        fill: #7c8791;
      }

      .cls-17 {
        fill: #030303;
      }

      .cls-18 {
        fill: #fefefd;
      }

      .cls-19 {
        fill: #272f3a;
      }

      .cls-20 {
        fill: #565f6b;
      }

      .cls-21 {
        fill: #283039;
      }

      .cls-22 {
        fill: #7b8793;
      }

      .cls-23 {
        fill: #f03385;
      }

      .cls-24 {
        fill: #7a8791;
      }

      .cls-25 {
        fill: #030203;
      }

      .cls-26 {
        fill: #fa7fb2;
      }

      .cls-27 {
        fill: #ec3888;
      }

      .cls-28 {
        fill: #e33882;
      }

      .cls-29 {
        fill: #020202;
      }

      .cls-30 {
        fill: #717d86;
      }

      .cls-31 {
        fill: #ee3983;
      }

      .cls-32 {
        fill: #7e8993;
      }

      .cls-33 {
        fill: #e33981;
      }

      .cls-34 {
        fill: #eb3684;
      }

      .cls-35 {
        fill: #272f38;
      }

      .cls-36 {
        fill: #212933;
      }

      .cls-37 {
        fill: #202832;
      }

      .cls-38 {
        fill: #3d444d;
      }

      .cls-39 {
        fill: #2a313c;
      }

      .cls-40 {
        fill: #f33184;
      }

      .cls-41 {
        fill: #3c444e;
      }

      .cls-42 {
        fill: #763151;
      }

      .cls-43 {
        fill: #75818c;
      }

      .cls-44 {
        fill: #ee3584;
      }

      .cls-45 {
        fill: #59626c;
      }

      .cls-46 {
        fill: #ed3a86;
      }

      .cls-47 {
        fill: #f92e87;
      }

      .cls-48 {
        fill: #e73880;
      }

      .cls-49 {
        fill: #010203;
      }

      .cls-50 {
        fill: #2c2f3a;
      }

      .cls-51 {
        fill: #28303b;
      }

      .cls-52 {
        fill: #7a8792;
      }

      .cls-53 {
        fill: #fa83b1;
      }

      .cls-54 {
        fill: #ed3581;
      }

      .cls-55 {
        fill: #ef3585;
      }

      .cls-56 {
        fill: #282f39;
      }

      .cls-57 {
        fill: #f23485;
      }

      .cls-58 {
        fill: #f13483;
      }

      .cls-59 {
        fill: #28303a;
      }

      .cls-60 {
        fill: #010202;
      }

      .cls-61 {
        fill: #e53b88;
      }

      .cls-62 {
        fill: #fa84b3;
      }

      .cls-63 {
        fill: #282f3a;
      }

      .cls-64 {
        fill: #f13084;
      }
    </style>
  </defs>
  <g id="Generative_Object" data-name="Generative Object">
    <path class="cls-29" d="M371.23,391.18c-14.05-3.68-26.32-9.47-36.84-19.4-.7,6.55,4.81,8.93,1.34,16.27-4.89,10.33-11.28,19.58-18.42,28.53-3.64,4.56-8.54,6.91-14.47,6.95l-42.2.3c.26-14.84,11.17-26.24,25.9-26.41l3.96-9c-7.89-4.84-15.31-9.74-20.47-17.46l-23.74.34c-7.77,18.43-16.6,36.19-29.72,51.6-4.53,5.32-12.54,6.8-19.17,6.83l-41.88.19c.49-10.19,4.84-19.35,13.18-24.93l11.14-5.67c4.02-13.27,4.61-26.54,2.84-40.07l-8.55-2.38c-5.18,17.51-13.16,33.37-23.86,48.17-7.64,10.57-11.89,18.56-27.1,18.61l-39.26.14c-.23-10.99,6.2-19.72,15.6-24.64l8.62-3.61c2.43-1.02,3.18-5.4,3.89-8.14,6.78-26.05,5.52-53.47-3.36-78.81-5.18-7.69-11.5-13.77-18.84-19.24l-18.03,6.5c-10.65,3.84-22.19,1.36-32.73-2.82-5.83-2.78-10.12-7.51-12.93-13.73-6.39-1.07-11.88-4.52-14.62-10.65-4.43-5.59-5.08-12.72-8.2-18.95-2.78-5.54-5.17-11.37-1.1-17.26l13.49-14.76,14.01-15.24c-2.84-14.52.89-19.77,9.82-30.36-4.18-8.17-5.95-16.42-4.58-24.9,1.48-9.14,7.98-15.84,18.23-15.22-5.79-32.57,1.13-63.37,17.88-91.68-1.46,18.28-2.29,35.31.45,53.31,4.49-29.06,18.16-53.91,38.14-76.05-5.51,18.04-9.95,35.35-11.06,53.93C110.54,42.18,131.85,18.26,158.47.31c-10.01,17.21-19.28,33.24-25.25,51.87,16.73-22.38,37.54-38.89,62.72-51.03l-6.12,7.8c-10.09,12.86-20.03,25.79-27.08,40.5C185.49,25.17,212.95,8.77,244.54,0l-8.18,7.68c-12.73,11.96-25.1,23.87-34.89,38.96,28.17-22.3,56.65-33.22,92.36-38.06l-7.96,5.15c-15.76,10.19-31.56,20.29-44.79,33.32,23.08-12.95,47.28-20.25,73.16-22.25,9.14-.71,17.34-1.97,26.75-1.18l-16.52,7.31c-15.22,6.74-29.58,14.56-43.19,24.8,35.57-12.85,72-13.31,108.48-3.68-22.29,4.33-45.7,9.06-64.95,19.28,40.16-7.78,75.08-.16,111.15,16.76l-36.79.92c-9.75.24-19.2,1.7-28.39,4.31,18.42,1.99,34.5,6.08,50.56,13.63,19.6,9.22,37.3,21.33,52.27,37.7-19.88-7.14-38.71-13.32-59.97-14.79,20.4,9.66,38.4,22.55,53.27,39.87,11.92,13.89,21.66,28.75,28.97,45.81-12.05-10.17-23.68-18.88-36.66-26.67-3.58-2.15-6.93-3.97-11.16-5.44,28.18,27.03,42.53,60.41,48.03,99.24-9.51-13.37-18.32-26.39-31.11-37.97,14.15,28.29,18.68,56.88,16.59,89.29-5.5-14.26-11.85-27.96-20.29-41.17,7.82,28.02,5.96,55.6-1.11,80.96-3.39-17.69-7.19-33.4-14.47-47.75,2.12,20.67-.24,39.72-5.37,59.2.7,1.53-1.58,1.56-.89.04-2.61-14.24-5.59-27.88-11.59-40.7l-1.31,27.91-7.77-19.91-4.33-9.12c-2.39,9.68-2.83,20.78,3.32,28.78,1.58,2.05,2.51,4.43,1.91,7.2-2.84,13.01-6.92,25.64-12.76,37.58-4.61,9.41-11.84,12.68-22.75,12.73l-38.69.15c-.18-14.63,8.24-26.41,22.94-29.01,1.53-3.03,2.58-5.85,2.79-9.73ZM136.6,106.4c-.68-.33-.64-.78-.49-1.68,4.73-27.32,14.91-52.62,29.7-75.73-24.34,18.73-40.45,46.01-49.85,74.28.49-22.75,5.96-44.37,14.43-64.71l3.31-7.95c-23.82,25.94-36.03,54.23-39.29,89.75-5.01-20.59-4.73-42.39-1.33-63.46l.68-5.62c-12.13,21.84-17.91,46.52-16.43,72.02l.26,8.01c.02.63,1.03,1.62.21,2.84-5.67-9.86-10.08-20.49-11.93-31.93l-2.89-13.79c.32-2.45,1.07-5.31-.83-8.36-7.43,28.79-3.17,55.45,7.14,82.91.23.62,1.63.04,1.53-.47-.08-.43.43-1.02.54-1.23l18.12-20.95,9.19-8.01c-2.47,7.28-5.95,13.33-6.96,21.68l14.97-12.13c.94-.76,1.12-1.42,1.44-2.19.81.22,1.47-.06,2.26-.59l13.65-9.09,4.52-2.55c.26.02,1.15.47.94.57-.43.21-.65.97-.06,1.5-3.24,5.81-7.67,11.43-10.56,18.59,9.6-3.26,18.67-6.45,28.61-7.38,4.58-3.88,9.52-6.41,15.23-7.7,10.58-1.98,20.92,3.63,24.94,13.77,4.29,10.8,2.39,22.69-3.94,32.51,16.39,4.19,31.31,9.53,45.36,17.41l-17.95,3.02c16.76,6.87,31.6,15.98,45.05,28.18-11.69-.63-21.92-2.42-33.75-1.09,11.41,6.31,21.64,13.11,31.55,21.05,3.26,2.61,6.49,4.76,9.18,8.07.31.38,1.07.4,1.3-.03,1.04,1.57,1.91,3.21,3.7,4.33-2.79-6.69-5.41-13.65-10.67-18.29-.38-.47-.07-1.18.48-1.04,7.69,1.95,14.33,4.75,21.53,7.91,14.91,6.54,28.48,14.89,40.72,25.56.67.59,1.01.38,1.45.38.9,0,.59.54.69.89.22.79,1.83.23,1.51-.32-5.28-8.92-11.13-16.82-18.29-24.02l-2.1-1.52c2.62.24,4.82,1.39,7.36,2.68,14.58,7.45,28.33,15.6,40.79,26.15,5.82,4.93,11.43,9.33,15.91,15.62,1.33,1.88,2.5,4.51,5.27,5.08.6.12,1.08-.82.44-1.28-.41-.3-.51-1.1-.89-1.24-4.21-9.12-8.69-18.29-14.64-26.36.43-1.26-.78-2.96-1.64-4.01l-12.35-14.99c8.86,6.16,16.28,13.62,23.22,22,5.85,3.63,10.46,8.03,15.99,12.59,13.72,12.67,24.89,27.55,33.39,44.15.26.52.71.75,1.36.67.33.92.3,2.29,1.66,2.97-1.57-9.1-2.53-18.29-6.84-25.95-.87-6.04-3.23-11.77-6.03-17.6-1.14-2.37-2.57-4.57-2.7-7.53,9.74,11.28,15.68,24.56,19.63,38.92,6.42,9.19,11.37,18.71,14.19,29.3.3.58.97.97,1.22.83.51-.29.34-1.17.36-1.6l.43-11.92c-.28-17.73-4.96-34.66-14.08-49.46-.53-.87-1.34-2.18-.99-3.9,14.72,12.65,25.34,29.08,31.82,47.4.26.73.52.94,1.34.89.21,1.92-.1,3.86,1.31,5.68l-.25-19.88c-1.8-23.29-10.12-45.1-26-61.66l-14.32-14.93c17,8.42,30.78,20.75,41.92,35.95l10.7,16.11c.65.97.82,2.53,2.78,3.12-4.68-30.73-13.08-51.17-33.74-73.93-3.66-4.03-8.08-7.01-12.61-11.25,20.61,6.28,39.68,22.19,53.24,37.58,1.01-1.81-.38-2.68-.65-3.39-10.98-31.11-29.1-54.85-57.79-73.54-8.56-5.57-17.85-9.85-28.09-13.93,22.65,1.88,44.44,9.8,64.49,20.92,6.01,3.33,10.31,7.4,12.14,6.91.36-.1.21-1.81-1-2.03-17.53-24.13-41.6-42.55-69.7-52.47-12.32-4.35-24.69-6.64-37.47-8.32-1.12-.15-3.09.64-3.64-1.87,5.01.46,9.5.18,14.59-.28,22.05-2,43.59-.08,64.73,4.41.45.09,1.49.06,2.39-.59-39.63-25.74-81.73-32.21-128.57-18.66.48.75,1.29.68,1.92.94-.82.25-1.63.38-2.59.34.16-.57.13-1.13-.44-1.51-.35,1-.99.79-1.33.64-.25-.11-.68.66-.02.86.27.08.71.05,1.08-.02.08,1.1-.8.54-1,.81-.54.71-2.4-.87-1.8-1.2,25.13-13.9,52.29-22.36,81.12-25.38.47-.05.27-1.56.22-1.7,1.91.14,3.7,1.71,6.16.03-43.91-12.16-86.74-4.02-122.02,21.7-3.09,2.26-5.8,5.23-10.1,7.04,21.9-27.15,50.41-44.45,82.12-55.41,1.58-.14,4.01.6,6.01-1.39l-22.31.05c-25.15,1.48-48.6,9.65-69.94,21.17l-4.7,2.99-16.86,10.62c15.23-21.14,34.94-36.71,57.03-49.63,1.18-.69,3.33-.67,3.34-2.47l2.6-.68c.44-.12.5-.13.87-.31.77-.37.62-1.01.26-1.1-.79-.19-1.55,0-1.8.38-35.41,5.45-67.97,22.69-92.24,49.8-2.77,3.56-5.79,6.02-7.66,9.7-.74.64-1.36,1.52-2.7,1.9,4.76-8.85,8.92-17.76,14.84-26.24,10.56-15.13,23.24-28.02,37.71-39.28.48-.37.42-1.08.3-1.39,1.57-.87,3.43-1.25,4.76-3.19-19.77,6.34-37.52,17.02-53.35,31.04-9.24,8.19-15.81,18.32-21.14,27.62-.07.03-1.21-.64-.92-.82.4-.24,1.11-.46,1.13-1.37.62-2.11,3.66-3.5,3.01-6.62-6.57,6.22-10.54,13.75-15.04,20.51,6.46-22.82,19.13-44.05,33.65-62.83,3.23-4.18,6.76-7.75,10.95-12.55-17.2,8.73-32.33,20.44-45.72,34.91-13.94,15.08-24.09,32.43-30.97,51.33ZM57.62,150.68l-3.45-10.8c-1.24-1.6-5.65-.57-7.48.57-6.63,4.13-5.46,16.72-2.09,25.52l13.02-15.29ZM138.19,162.89c-.56-.05-.83.44-1.14.34-1.76-.55-1.36-7.97,1.58-14.04-12.32,2.56-23.46,7.49-34.83,13.59,1.42-6.13,5.48-10.29,7.4-16.23-10.12,8.01-19.1,15.76-27.8,23.87-.27-.01-.74.11-1.45.76l1.92-14.64-16.29,19.65-5.54-12.86-1.86-5.03-20.61,25.54c-3.4,4.21-4.12,8.99-2.86,14.62l5.03-3.75c.5-.25,1,.02,1.1.66-2.17,3.92-3.77,8.36-7.06,11.82l-21.56,22.65,8.29-.36c6.48-.28,19.01,2.13,21.52,6.1,4.57,7.25-3.36,20.21-14.7,24.19l4.44,8.74,14.54,3.29c3.7.84,7.69,1.79,11.17.41l16.33-6.48c4.89-1.94,10.46-1.33,13.91,3.17-4.38-.66-8.31-.53-12.18,1.46l-13.58,7c-9.32,4.8-20.5.25-31.05-1.85.36,3.01,2.11,4.24,3.28,5.82,1.28,1.73,2.7,3.54,5.17,4.62,9.42,4.11,20.4,5.47,30.38,2.17,8.09-2.68,15.35-5.99,23.6-7.85,11.29-2.55,22.54-3.4,33.25.69-10.66,1.11-20.06,2.45-29.9,5.66,6.25,5.11,10.59,11.06,15.75,16.67l10.32,11.24c15.74,16.18,34.59,28.69,56.59,36.59-3.21-15.09-8.35-29.04-15.23-42.34l-3.24-6.25c3.07,1.35,5.05,4.02,7.11,6.54,15.6,19.14,22.81,48.3,20.54,73.44-.68,7.52-1.88,14.81-4.82,21.74-1.38,3.25-16.98,3.94-21.12,18.16l4.56.3c.75-4.9,3.96-8.08,8.26-9.84l1.74-.71c.58-.24,1.11-.29,1.14.83-2.59,2.35-5.28,5.76-5.59,9.6l8.46-.05c2.07-5.24,5.93-8.88,11.47-9.43-2.79,2.65-4.88,5.21-5.72,9.33,5.46.49,10.78.39,15.83-.91,3.29-.85,6.02-2.68,8.34-5.75,9.18-12.13,16.27-24.88,22.58-38.69,6.1-13.36,9.98-27.18,12.38-41.84,2.14-13.08,1.52-25.81-1.23-38.57-.12-.57-.15-1.05.44-1.24,3.8,7.72,6.43,16.11,7.33,24.68s1.1,17.33-1.22,26.03l-4.77,17.9c24.33.87,47.84-3.2,71.12-10.8-5.59-10.94-8.07-22.01-8.02-33.44.01-3.48.76-6.95,1.75-10.79,1.35,1.62,1.07,3.15,1.2,4.49,3.29,33.85,24.03,62.61,58.55,70.53,2.9.67,5.73,1.82,5.64,5.42-.14,5.92-1.57,11.87-4.72,16.46-2.61,3.82-16.06,1.11-20.03,16.22,1.26.75,3.07.8,3.85.17,1.59-5.14,5.66-9.78,11.63-10.17-2.84,3.3-5.42,6.19-5.84,10.44l9.15.04c1.51-5.73,5.66-9.91,11.44-9.6-3.19,2.49-5.54,5.12-6.01,9.45,6.86.91,17.97-.93,19.71-4.45,6.25-12.66,11.97-25.8,14.32-40.2-3.16-5.71-6.99-11.89-6.78-19.09l.37-12.11c.14-4.56,1.85-8.98,4.15-13.56-9.01-16.81-20.08-31.65-34.44-44.13l7.51,22.04,3.29,12.88c.23.9-.08,1.39-.9,1.28-15.35-21.3-33.25-40.79-57.19-54.53,4.68,9.75,9.2,18.22,11.66,28.39-20.06-19.23-41.86-35.97-68.02-45.71,2.55,5.34,4.5,10.42,6.39,15.61,1.71,4.71,3.5,9.42,4.24,14.69l-10.97-11.33c-6.26-6.47-13-12.61-19.89-18.35-14-11.66-29.44-21.37-47.14-29.36,8.38-2.4,16.33-3.91,24.9-4.34.95-.05,2.37.66,2.82-.55,1.57.69,3.29.75,4.92.48-15.94-10.67-31.34-16.39-49.36-21.4,5.8-3.04,12.65-3.12,19.77-5.11-9.65-3.89-19.75-6.32-29.95-8.86l-5.24,2.82c-5.09,2.74-11.01-1.16-10.41-2.18.23-.39.69-.7,1.1-.77,11.43-3.21,19.82-14.25,19.14-26.16-.2-4.26-.7-8.76-3.35-12.42-5.22-7.23-14.66-7.92-22.34-3.39-8.09,4.77-13.93,12.14-18.4,20.21ZM35.47,237.38c-9.43-4.11-19.48-4.05-27.55.55,9.16,3.51,19.01,3.93,27.55-.55ZM27.58,269.86l-4.94-8.18c-2.15-2.16-5.69-2.87-8.7-4.45,1.94,5.62,7.41,13.83,9.77,13.94,1.32.07,2.83-.4,3.87-1.31ZM122.88,338.84c2.26,15.94.98,56.07-12.62,64.29-7.1,1.58-14.03,5.67-17.04,12.92l6.34.2c2.27-5.35,7.3-9.13,13.09-8.78-2.92,2.93-5.69,4.64-7.13,8.75l17.02-.02c3.97,0,8.88-.44,11.92-3.5,5.04-5.06,10.27-11.48,12.56-17.13,1.6-.76,2.09-2,2.79-3.13,7.65-12.3,13.49-25.23,17.61-39.05-13.31-5.93-24.58-13.58-35.66-22.46l-11.44-10.17,2.56,18.08ZM269.84,416.18l30.28.02c2.53,0,7.06-.18,8.92-2.11,8.6-8.92,15.11-19.11,20.7-30.46-2.46-6.55-4.29-12.84-2.78-19.66l-3.44-4.3c-14.31,5.15-28.74,8.44-44.48,10.42,4.79,5.69,10.69,9.35,16.88,12.78,5.36,2.97-.28,15.51-5.9,21.37-8.77-.5-16.58,3.42-20.17,11.94Z"/>
    <path class="cls-39" d="M200.08,93.38l15.39-13.31c19.28-15.41,40.34-27.74,63.17-37.17,6.76-2.79,12.77-5.56,19.4-7.3-.01,1.79-2.16,1.77-3.34,2.47-22.09,12.92-41.81,28.49-57.03,49.63l16.86-10.62,4.7-2.99c.11.45.35.87,1.02.62,27.79-10.2,56.5-17.88,85.22-20.46-31.71,10.96-60.22,28.26-82.12,55.41,4.3-1.81,7.01-4.78,10.1-7.04.09.46.42.68.61.61l1.17-.43c20.86-11.16,43.26-18.33,66.8-21.61l12.03-.93,12.34-1.04,22.9,1.66c.05.14.25,1.65-.22,1.7-28.82,3.02-55.99,11.49-81.12,25.38-.6.33,1.26,1.91,1.8,1.2.2-.27,1.08.3,1-.81l.71.03c.96.04,1.76-.09,2.59-.34,5.69-1.72,11.72-1.61,17.81-2.25,35.94-3.75,73.41,4.2,105.52,19.26.64.3.98.69.92,1.3-21.14-4.49-42.68-6.41-64.73-4.41-5.09.46-9.58.74-14.59.28.55,2.51,2.52,1.72,3.64,1.87-.04.71.13,2.24.61,2.17l2.54-.35c39.51,10.53,73.8,28.22,102.33,58.25.32.34.61,1.12,1.33,1.28.2.05.5-.2.37-.57,1.21.22,1.36,1.94,1,2.03-1.83.48-6.13-3.58-12.14-6.91-20.05-11.12-41.84-19.04-64.49-20.92,10.24,4.08,19.53,8.36,28.09,13.93.96,1.7,2.3,4.11,3.93,5.05,3.74,2.16,5.74,5.17,8.61,8.19,12.47,13.1,23.64,26.88,33.69,41.77l11.55,18.52c.27.7,1.66,1.57.65,3.39-13.56-15.38-32.63-31.3-53.24-37.58,4.52,4.24,8.95,7.22,12.61,11.25-.34,1.45-.23,2.7.59,3.62,5.6,6.33,9.34,13.54,13.33,21.11,7.4,14.02,12.45,28.73,17.32,43.94.21.64.35,1.06.27,1.62-.03.19-.07.32-.55.52l-10.7-16.11c-11.15-15.2-24.92-27.52-41.92-35.95l14.32,14.93c-.62,1.63,1.07,2.74,1.67,3.84l6.26,11.33c8.87,19.42,14.73,39.8,17,60.68-.82.05-1.08-.15-1.34-.89-6.48-18.32-17.1-34.75-31.82-47.4-.35,1.72.46,3.03.99,3.9-.81.39-.59,1.27-.73,1.92-.15.68,1.13,1.14,1.38,1.89,6.07,18.28,9.77,36.9,12.47,56.08-.65.81-.12,1.59.53,1.5-.02.44.15,1.31-.36,1.6-.25.14-.92-.25-1.22-.83-2.82-10.58-7.77-20.11-14.19-29.3-3.95-14.35-9.89-27.63-19.63-38.92.13,2.96,1.56,5.16,2.7,7.53,2.8,5.83,5.15,11.56,6.03,17.6l-8.3-14.78c-6.88-10.4-15.86-18.81-25.36-26.62-.13,2.51,1.98,2.97,3.38,4.49,16.12,17.53,27.72,37.91,35.46,59.89-.65.08-1.1-.15-1.36-.67-8.49-16.59-19.66-31.48-33.39-44.15-5.52-4.56-10.14-8.96-15.99-12.59-6.94-8.38-14.37-15.84-23.22-22l12.35,14.99c.86,1.04,2.07,2.74,1.64,4.01-6.39-7.9-14.65-14.38-24.05-19.42-2.56-1.37-4.48-3.71-7.64-3.31,9.17,6.47,17.38,12.85,24.69,21.15,7.86,8.92,14.85,17.78,20.38,28.18.32.59,1.02.62,1.26-.25.37.14.48.94.89,1.24.64.47.16,1.41-.44,1.28-2.76-.57-3.93-3.2-5.27-5.08-4.48-6.3-10.1-10.7-15.91-15.62-12.46-10.55-26.21-18.71-40.79-26.15-2.53-1.29-4.74-2.45-7.36-2.68l-9.28-6.28-4.73-2.46c-1.45-.76-2.84-1.61-4.74-1.6l9.8,7.2,6.52,5.61,9.07,8.83c4.37,4.25,8.22,8.83,11.55,13.68-.44,0-.77.2-1.45-.38-12.24-10.66-25.81-19.01-40.72-25.56-7.2-3.16-13.84-5.96-21.53-7.91-.55-.14-.86.57-.48,1.04-4.67-4.12-9.11-8.28-15.54-10.04,8.49,7.21,16.37,14.74,22.51,24-.23.43-.99.41-1.3.03-2.69-3.3-5.92-5.45-9.18-8.07-9.91-7.95-20.15-14.75-31.55-21.05,11.83-1.32,22.05.46,33.75,1.09-13.45-12.19-28.29-21.31-45.05-28.18l17.95-3.02c-14.04-7.88-28.97-13.22-45.36-17.41,6.32-9.81,8.23-21.7,3.94-32.51-4.02-10.13-14.36-15.74-24.94-13.77-5.71,1.29-10.64,3.82-15.23,7.7-9.94.94-19.01,4.12-28.61,7.38,2.89-7.16,7.31-12.77,10.56-18.59-.59-.53-.37-1.29.06-1.5.2-.1-.68-.55-.94-.57l6.41-3.73c7.69-13.51,15.82-26.24,26.18-38.65.23,3.92-2.1,6.91-2.96,10.47l-4.29,17.86c-.87,3.63-2.15,6.94-1.15,11.04,4.85-10.14,9.93-19.79,15.97-28.88,4.49-6.76,8.46-14.29,15.04-20.51.66,3.12-2.38,4.51-3.01,6.62-.02.91-.73,1.12-1.13,1.37-.3.18.84.85.92.82-.33.66-.93,1.38-.8,2.39l10.93-12.62c17.53-18.32,37.79-33.13,59.6-45.25.13.31.19,1.01-.3,1.39-14.47,11.26-27.15,24.15-37.71,39.28-5.92,8.48-10.08,17.39-14.84,26.24,1.34-.38,1.96-1.26,2.7-1.9ZM196.08,116.01l-4.38,8.88c-.32.66.59.62.91.43.34-.21,1.68-.15.77-1.59l16.54-19.33c-4.85,11.5-9.23,23.01-12.5,35.39-.22.82-.08,1.32.79,1.48-.97,1.47-2.09,2.83-2.8,5.03,2.42-.84,3.19-3.24,4.7-5.06,12.44-15,27.32-27.11,43.12-38.25l18.17-11.76c.63,1.45-1.15,1.89-2.04,2.74l-11.7,11.2c-8.93,9.49-17.49,18.94-24.1,30.27l10.96-9.87,19.49-18.98c12.61-12.28,26.12-22.52,40.81-33.27-31.21,6.1-60.64,19.43-82.46,41.62l6.36-14.41,13.48-23.19c-9.16,4.28-15.51,10.31-22.65,16.19-12.13,10.45-21.88,22.72-27.89,37.78l10.86-12.74c1.01-1.18,2.06-2.35,3.57-2.54ZM192.06,86.53c.66-.98,1.92-1.74,1.51-3.26-13.29,12.18-20.11,23.2-24.15,40.97-.14.63,2.01.14,1.18-1.1,6.85-12.39,13.47-24.67,21.47-36.61ZM211.51,165.54c.19.16.43.32.79.03,21.55-17,43.46-27.8,68.58-37.75l2.7-.42c-.55,1.59-2.68,1.62-4.16,2.48-9.57,5.58-18.28,11.83-26.62,18.94-4.71,4.01-9.07,7.82-12.76,13.21l23.12-11.49c-.07.53.49.9.89.65.35-.22.63-.37,1.07-.48l17.83-4.52c13.99-3.55,31.04-5.64,45.64-5.91,5.11-.09,9.95-.53,15.1-.11,8.1.67,16.16,0,23.64,1.99l-8.21,1.07c-26.33,2.03-51.96,7.88-75.63,20.54,18.22-5.05,36.51-9.53,55.77-12.4,24.3-3.62,47.6-3.43,72.53-.74-23.08-12.58-48.03-19.56-73.95-21.16-19.36-1.2-37.65,1.81-56.22,7.18,12.78-9.33,26.68-13.99,40.27-20.37-19.25-.46-37.17,2.03-54.83,7.58-23.86,7.5-47.39,22.29-58.97,44.32l2.11-1.49c.19-.13.15-.71.41-1.01.25-.28.59-.4.9-.13ZM372.65,168.07c-11.42-2.1-23.13-4.84-35.45-2.47,29.22,3.79,56.24,12.64,79.94,28.5-24.69-8.45-50.95-12.87-77.77-11.6-7.48.13-14.25.51-21.46,1.64-9.33-3.1-18.25-5.59-27.78-7.52-22.01-3.82-40.07-2.93-59.64,8.03l18.85-2.08c.08.94.57.99,1.41.98l14.36-.16,24.7.86c1.11.04,2.67,1.04,3.9.83-16.82,1.07-33.79,5.64-48.9,14.43,18.25-3.71,35.27-8.08,53.13-9.76-.1.05-.06.48.11.66,4.81-.26,9.24.69,14.16,1.23,17.38,1.9,34.18,4.98,50.43,11,11.22,4.15,21.79,8.27,31.66,14.03-1.47,1.31-3.07-.85-4.24-1.16l-23.7-6.35c-18.98-3.95-37.63-5.76-57.26-3.4,17.35,3.49,33.91,8.49,50.09,16.09,9.52,4.47,17.67,10.02,26.25,15.33,3.04,2.19,6.95,4.08,6.76,6.06l-10.83-5.81c-10.79-5.79-21.99-9.87-34.53-11.43,17.01,7.28,33.88,15.03,49.27,25.84,6.55,4.6,12.67,8.62,18.35,13.88l-13.79-5.57c-9.6-4.37-19.25-7.99-30.38-8.41l17.37,8.03c18,8.32,35.04,16.86,52.66,27.76-19.41-31.73-49.41-57.65-82.06-73.33l15.26,2.78c18.59,4.3,35.6,11.65,53.32,18.94-8.86-9.98-18.19-17.48-28.22-25.02-12.69-9.66-26.75-15.62-41.38-22,30.79.91,58.98,9.34,86.67,22.44-17.94-23.94-47.13-45-77.5-48.65l-13.61-1.64c.46,1.75,1.53,1.44,2.91,1.59,6.21.66,16.96,4.51,16.96,4.53.04.27.13.54-.02.88ZM295.49,213.19c-5.34-1.62-10.92-1.65-16.84-2.26-3.58-.37-7.19-1.55-10.88.66,17.24,2.47,33.85,7.42,49.47,14.62-.22.71-.74.64-1.44.42-16.08-2.75-32.1-3.52-47.97-.81l30.37,3.47c16.44,1.88,31.77,5.45,48.48,10.24-10.53-10.56-22.39-18.58-35.39-24.64-7.33-3.41-15.11-4.56-22.62-5.75,2.29,1.42,3.87,2.19,6.92,2.75.1-1.67.03.99-.09,1.31Z"/>
    <path class="cls-7" d="M179.54,151.32c-1.87.08-3.43-.64-5.05-1.5-10.99-5.85-23.65,8.47-26.79,22.14,4.98-1.35,8.6-2.52,13.86-2.61-.46,4.55-2.16,8.64-3.67,13.11l4.5-2.14.75,4.34c-.4.07-.86.38-1.1.77-.6,1.02,5.32,4.92,10.41,2.18l5.24-2.82c10.2,2.54,20.3,4.97,29.95,8.86-7.12,1.99-13.97,2.06-19.77,5.11-1.34.07-1.32,1.1-.15,1.24l44.59,19.68c-.45,1.21-1.86.5-2.82.55-8.58.43-16.53,1.94-24.9,4.34,17.7,7.98,33.14,17.7,47.14,29.36-.2.53-.77.56-1.01.15-6.57-3.04-12.61-6.6-20.23-7.93,16.62,11.56,31.09,24.68,41.65,41.61,1.45-5.69-1.22-10.97-.53-15.49l10.97,11.33c-.74-5.27-2.53-9.98-4.24-14.69.29-.8.81-.9,1.36-.37,25.68,12.55,48.47,30.03,67.91,51.41.12-9.09-1.77-16.75-3.22-25.83,17.08,12.75,30.6,28.15,41.87,45.72l-1.42-13.25c-.09-.66,0-1.44.65-1.46.82.11,1.14-.38.9-1.28l-3.29-12.88c.24-.52.77-.84,1.16-.22,9.52,10.2,16.19,21.73,20.37,34.65.24.73.29,1.16,1.25,1.23l-.37,12.11c-.22,7.2,3.62,13.38,6.78,19.09-2.34,14.4-8.07,27.54-14.32,40.2-1.73,3.51-12.84,5.36-19.71,4.45.47-4.33,2.83-6.97,6.01-9.45-5.78-.31-9.93,3.86-11.44,9.6l-9.15-.04c.42-4.25,2.99-7.14,5.84-10.44-5.97.38-10.04,5.02-11.63,10.17-.78.63-2.59.57-3.85-.17,3.97-15.11,17.41-12.4,20.03-16.22,5.03,2.55,8.48-12.31,8.68-20.62-1.02-1.33-3.52-2.5-5.09-2.98-32.38-9.74-53.68-35.44-61.85-67.91.31-.92-.51-1.7-1.22-.91-.13-1.33.15-2.86-1.2-4.49-.99,3.84-1.73,7.31-1.75,10.79-1.13.11-1.99.46-3.12,1.08-15.63,8.67-33.27,11.56-51.01,8.27l-1.76-8.25c-.16-.77-.65-.88-1.22-.8-.9-8.57-3.53-16.96-7.33-24.68-.63-1.28-.85-2.77-2.31-4.06.55,19.4-3.74,37.68-8.69,56.28l-2.26-10.41c-3.07,29.17-14.74,56.34-28.86,81.97-.54.98-1.04,1.17-.39,2.32-5.05,1.3-10.37,1.41-15.83.91.84-4.12,2.94-6.68,5.72-9.33-5.54.55-9.4,4.19-11.47,9.43l-8.46.05c.31-3.84,3-7.25,5.59-9.6.41-.37.78-1.69.56-1.81l-1.41-.76c13.06-4.45,10.3-5.76,13.45-16.74,3.95-13.75,3.86-27.38,1.03-41.37-3.3-16.31-10.56-30.93-22.35-42.6-.54-.53-.86-.9-1.59-.65-2.06-2.53-4.04-5.2-7.11-6.54l-8.39-11.61,4.46-4.86c12.3-16.32,19.23-39.25,12.84-58.09-1.69-4.97-2.35-10.34-5.32-15.43-.61.32-.54.96-.52,1.4-.74.67-1.44,2.38-1.25,3.6l.38,2.51-.86,1.72c.33,5.32-2.18,10.62-3.75,15.05-1.48.27-1.8,1.55-2.5,2.71-10.13,16.83-28.45,22.99-47.14,26.97-12.56,2.67-24.06,6.9-35.39,13.19-13.84,7.68-25.18,6.85-39.25,1.66-1.17-1.58-2.92-2.81-3.28-5.82,10.55,2.1,21.72,6.65,31.05,1.85l13.58-7c3.87-1.99,7.8-2.12,12.18-1.46-3.45-4.5-9.02-5.11-13.91-3.17l-16.33,6.48c-3.49,1.38-7.47.43-11.17-.41l-14.54-3.29-4.44-8.74c11.34-3.98,19.27-16.94,14.7-24.19l20.71-18.77,9.77-9.29c.31-.29,1.46.89,1.9.4,2.86,4.12,8.83,4.42,13.64,1.54,4.16,7.08,12.87,10.1,19.96,5.57,6.04-3.86,7.32-11.25,5.51-18l14.67-2.39c-11.16-6.45-21.5-4.91-31.64,1.12-1.92-4.79-7-7.13-7.3-10.35-.08-.83-.55-1.26-1.53-1.56-1.14-3.62-3.61-6.78-3.76-10.39-.07-1.76-1.16-2.95-2.55-3.02,8.69-8.11,17.68-15.86,27.8-23.87-1.92,5.95-5.98,10.11-7.4,16.23,11.37-6.1,22.51-11.03,34.83-13.59-2.94,6.07-3.34,13.49-1.58,14.04.31.1.58-.39,1.14-.34,3.43.28,9.61-10.44,21.96-16.76,7.45-3.81,15.42-1.97,19.39,5.19ZM117.13,216.9c-6.96,3.44-14.22,4.4-22.88,3.37,6.91,4.53,17.69,4.12,22.88-3.37ZM122.86,240.02c11.05-.91,18.95-10.27,18.52-20.62-4.35,9.02-10.61,14.89-18.52,20.62Z"/>
    <path class="cls-47" d="M202.34,32.72c-14.52,18.78-27.2,40.01-33.65,62.83-6.04,9.09-11.12,18.74-15.97,28.88-1-4.1.27-7.41,1.15-11.04l4.29-17.86c.86-3.57,3.19-6.56,2.96-10.47-10.36,12.41-18.49,25.15-26.18,38.65l-6.41,3.73-4.52,2.55c-1.13-1.35-.75-2.69-.47-4.35l2-11.56c.69-4,2.37-7.6,2.26-11.65-8.27,12.1-14.53,24.5-19.7,37.23-.31.77-.5,1.43-1.44,2.19l-14.97,12.13c1.02-8.34,4.5-14.39,6.96-21.68l-9.19,8.01-18.12,20.95-5.24-22.25c-3.94-16.88-5.3-34.07-3.13-50.59l2.89,13.79c1.85,11.45,6.26,22.07,11.93,31.93.83-1.22-.19-2.21-.21-2.84.27,0,.8.06,1.45-.26-.48-3.24.26-6.39.59-9.87,1.8-18.94,4.78-37.31,9.98-55.37,1.39-2.39,1.13-5.05,1.9-7.5.16-.46.31-1.06.62-1.24.23-.13.67-.12.94-.17-3.4,21.07-3.68,42.87,1.33,63.46.4-.92,1.1-.58,1.38-.57s.09-.89.24-1.43c7.81-30.09,15.32-51.96,32.22-78.34.67-1.04.66-1.89,2.15-1.46-8.47,20.34-13.94,41.95-14.43,64.71,9.4-28.27,25.51-55.54,49.85-74.28-14.79,23.11-24.98,48.42-29.7,75.73-.16.9-.2,1.35.49,1.68-.51,1.4-1.31,3.06-1.07,4.97,12.13-24.67,27.95-47.26,48.2-66.37,5.35-5.06,18.35-16.87,19.64-16.44,1.5.5-2.32,3.48-1.03,4.16Z"/>
    <path class="cls-59" d="M162.87,302.5l3.24,6.25c6.89,13.3,12.03,27.25,15.23,42.34-22-7.9-40.85-20.41-56.59-36.59l-10.32-11.24c-5.16-5.61-9.5-11.56-15.75-16.67,9.85-3.2,19.24-4.55,29.9-5.66-10.72-4.08-21.97-3.24-33.25-.69-8.25,1.86-15.51,5.17-23.6,7.85-9.97,3.31-20.96,1.94-30.38-2.17-2.48-1.08-3.89-2.9-5.17-4.62,14.07,5.19,25.41,6.02,39.25-1.66,11.33-6.28,22.83-10.51,35.39-13.19,18.69-3.98,37.01-10.14,47.14-26.97.69-1.15,1.02-2.44,2.5-2.71-3.51,9.88-8.08,19.46-16.08,26.93-.57.15-.7.79.05,1.1-1.8,1.24-4.16,1.91-5.69,4.33,21.48-5.11,32.5-19.74,33.03-41.21,6.39,18.84-.54,41.78-12.84,58.09l-4.46,4.86,8.39,11.61Z"/>
    <path class="cls-9" d="M83.41,170.41c1.39.07,2.48,1.26,2.55,3.02.14,3.62,2.61,6.77,3.76,10.39.98.31,1.45.73,1.53,1.56.3,3.22,5.38,5.55,7.3,10.35-5.64,3.35-13.8,9.73-17.69,8.21-.97-.38-1.54-1.88-2.07-2.97.7-4.02,2.24-7.44,4.72-11.2-2.45.39-3.73,2.41-4.45,4.22.48.86-.62,1.05-1.03.52-3.39,3.1-4.36,9.45-1.62,13.4-.44.49-1.59-.7-1.9-.4l-9.77,9.29-20.71,18.77c-2.51-3.98-15.04-6.38-21.52-6.1-.05-.25-.37-.75.05-1.17,10.46-10.35,24.35-23.08,21.87-35.8l-1.59,2.87c-.09-.64-.6-.92-1.1-.66.36-.58.4-1.55-.08-2.03-.34-.35-.66-.69-.7-1.15,2.26-3.85,4.34-7.39,6.94-10.72l14.13-17.47,5.54,12.86,16.29-19.65-1.92,14.64c.71-.65,1.18-.77,1.45-.76Z"/>
    <path class="cls-51" d="M254.56,320.1c.57-.08,1.06.03,1.22.8l1.76,8.25c17.74,3.29,35.38.39,51.01-8.27,1.13-.63,1.99-.97,3.12-1.08-.05,11.43,2.43,22.5,8.02,33.44-23.28,7.59-46.8,11.67-71.12,10.8l4.77-17.9c2.32-8.7,2.1-17.61,1.22-26.03Z"/>
    <path class="cls-37" d="M269.84,416.18c3.59-8.52,11.41-12.45,20.17-11.94,5.62-5.86,11.25-18.4,5.9-21.37-6.19-3.43-12.09-7.1-16.88-12.78,15.73-1.98,30.16-5.27,44.48-10.42l3.44,4.3c-1.51,6.82.32,13.11,2.78,19.66-5.59,11.35-12.1,21.54-20.7,30.46-1.86,1.93-6.38,2.11-8.92,2.11l-30.28-.02Z"/>
    <path class="cls-19" d="M385.5,325.12c-.65.02-.75.8-.65,1.46l1.42,13.25c-11.27-17.58-24.79-32.97-41.87-45.72,1.45,9.08,3.35,16.74,3.22,25.83-19.45-21.38-42.24-38.86-67.91-51.41-.56-.53-1.08-.43-1.36.37-1.89-5.2-3.84-10.28-6.39-15.61,26.16,9.73,47.96,26.47,68.02,45.71-2.47-10.17-6.99-18.64-11.66-28.39,23.94,13.74,41.84,33.23,57.19,54.53Z"/>
    <path class="cls-41" d="M147.01,395.58c-2.3,5.65-7.53,12.07-12.56,17.13-3.05,3.06-7.96,3.5-11.92,3.5l-17.02.02c1.45-4.11,4.21-5.82,7.13-8.75-5.79-.35-10.82,3.43-13.09,8.78l-6.34-.2c3.02-7.25,9.94-11.34,17.04-12.92,3.03,1.2,5.99-1.14,7.73-3.9,2.57-3.94,4.12-8.06,5.45-12.62,3.83-13.12,5.64-26.53,4.92-40.16,14.19,16.1,18.56,26.8,18.66,49.13Z"/>
    <path class="cls-36" d="M147.01,395.58c-.09-22.33-4.46-33.03-18.66-49.13-1.95-2.22-2.98-5.77-5.48-7.61l-2.56-18.08,11.44,10.17c11.08,8.88,22.35,16.53,35.66,22.46-4.12,13.83-9.96,26.75-17.61,39.05-.7,1.13-1.19,2.37-2.79,3.13Z"/>
    <path class="cls-56" d="M247.23,295.42c-.6.19-.57.66-.44,1.24,2.75,12.77,3.37,25.49,1.23,38.57-2.4,14.67-6.28,28.48-12.38,41.84-6.3,13.82-13.4,26.56-22.58,38.69-2.32,3.07-5.05,4.9-8.34,5.75-.65-1.15-.15-1.34.39-2.32,14.12-25.63,25.79-52.8,28.86-81.97l2.26,10.41c4.95-18.6,9.24-36.88,8.69-56.28,1.46,1.29,1.68,2.78,2.31,4.06Z"/>
    <path class="cls-40" d="M438.3,126.38c.06-.61-.28-1-.92-1.3-32.11-15.06-69.58-23.02-105.52-19.26-6.1.64-12.12.53-17.81,2.25-.63-.26-1.44-.19-1.92-.94,46.84-13.55,88.94-7.07,128.57,18.66-.9.65-1.94.69-2.39.59Z"/>
    <path class="cls-30" d="M180.29,412.97c-.04-1.12-.56-1.06-1.14-.83l-1.74.71c-4.31,1.76-7.51,4.94-8.26,9.84l-4.56-.3c4.15-14.23,19.75-14.91,21.12-18.16,2.94-6.93,4.14-14.22,4.82-21.74,2.27-25.14-4.95-54.31-20.54-73.44.73-.24,1.05.12,1.59.65,11.8,11.67,19.06,26.28,22.35,42.6,2.83,13.99,2.92,27.62-1.03,41.37-3.15,10.98-.39,12.29-13.45,16.74l1.41.76c.22.12-.16,1.44-.56,1.81Z"/>
    <path class="cls-1" d="M389.29,80.89l-22.9-1.66-12.34,1.04-12.03.93c-23.54,3.28-45.95,10.44-66.8,21.61l-1.17.43c-.19.07-.52-.15-.61-.61,35.28-25.72,78.11-33.86,122.02-21.7-2.47,1.68-4.25.11-6.16-.03Z"/>
    <path class="cls-10" d="M374.09,405.9c3.14-4.59,4.58-10.54,4.72-16.46.09-3.6-2.74-4.76-5.64-5.42-34.51-7.92-55.25-36.68-58.55-70.53.71-.79,1.53-.01,1.22.91,8.16,32.47,29.47,58.16,61.85,67.91,1.57.47,4.07,1.64,5.09,2.98-.21,8.31-3.65,23.18-8.68,20.62Z"/>
    <path class="cls-12" d="M469.79,184.91c.13.37-.17.62-.37.57-.72-.16-1-.94-1.33-1.28-28.52-30.03-62.81-47.72-102.33-58.25l-2.54.35c-.48.07-.65-1.47-.61-2.17,12.78,1.68,25.15,3.97,37.47,8.32,28.1,9.92,52.18,28.34,69.7,52.47Z"/>
    <path class="cls-58" d="M300.64,34.92l-2.6.68c-6.63,1.74-12.64,4.5-19.4,7.3-22.83,9.43-43.9,21.76-63.17,37.17l-15.39,13.31c1.86-3.68,4.88-6.14,7.66-9.7,24.27-27.11,56.82-44.34,92.24-49.8.3.16.68.52.67,1.03Z"/>
    <path class="cls-21" d="M405.9,346.62c-.96-.07-1.02-.5-1.25-1.23-4.18-12.92-10.85-24.44-20.37-34.65-.39-.61-.92-.3-1.16.22l-7.51-22.04c14.36,12.48,25.43,27.32,34.44,44.13-2.3,4.58-4.01,9.01-4.15,13.56Z"/>
    <path class="cls-63" d="M179.54,151.32c1,1.81,2.6,4.78,2.74,7.18.68,11.9-7.71,22.95-19.14,26.16l-.75-4.34c4-4.73,7.64-13.84,4.46-15.7-2.45-1.42-4.92-1.36-8.16-1.62,2.59-5.5,6.91-10.25,12.98-11.9,1.13-.31,2.49-.21,2.83-1.28,1.62.86,3.18,1.58,5.05,1.5Z"/>
    <path class="cls-62" d="M202.34,32.72c-1.3-.68,2.53-3.67,1.03-4.16-1.29-.43-14.29,11.39-19.64,16.44-20.24,19.12-36.07,41.7-48.2,66.37-.24-1.91.56-3.57,1.07-4.97,6.88-18.89,17.03-36.25,30.97-51.33,13.38-14.47,28.51-26.18,45.72-34.91-4.18,4.8-7.71,8.37-10.95,12.55Z"/>
    <path class="cls-14" d="M250.22,28.37c-21.81,12.12-42.06,26.93-59.6,45.25l-10.93,12.62c-.13-1.02.47-1.73.8-2.39,5.33-9.3,11.9-19.42,21.14-27.62,15.82-14.03,33.58-24.7,53.35-31.04-1.33,1.93-3.19,2.32-4.76,3.19Z"/>
    <path class="cls-31" d="M480.04,246.58l-11.55-18.52c-10.05-14.89-21.22-28.67-33.69-41.77-2.88-3.02-4.87-6.03-8.61-8.19-1.63-.94-2.97-3.35-3.93-5.05,28.69,18.69,46.81,42.43,57.79,73.54Z"/>
    <path class="cls-59" d="M251.72,253.91c6.89,5.74,13.63,11.88,19.89,18.35-.69,4.52,1.98,9.8.53,15.49-10.56-16.93-25.04-30.05-41.65-41.61,7.61,1.32,13.66,4.88,20.23,7.93.24.42.81.38,1.01-.15Z"/>
    <path class="cls-53" d="M130.39,38.56c-1.5-.43-1.49.42-2.15,1.46-16.89,26.38-24.4,48.25-32.22,78.34-.14.54.04,1.44-.24,1.43s-.98-.34-1.38.57c3.26-35.52,15.48-63.82,39.29-89.75l-3.31,7.95Z"/>
    <path class="cls-57" d="M345.46,54.25c-28.72,2.58-57.43,10.26-85.22,20.46-.67.25-.91-.17-1.02-.62,21.34-11.52,44.79-19.7,69.94-21.17l22.31-.05c-2,1.98-4.43,1.24-6.01,1.39Z"/>
    <path class="cls-4" d="M62.96,88.43c-2.17,16.52-.81,33.71,3.13,50.59l5.24,22.25c-.11.21-.62.8-.54,1.23.1.51-1.3,1.09-1.53.47-10.31-27.46-14.57-54.12-7.14-82.91,1.9,3.04,1.15,5.91.83,8.36Z"/>
    <path class="cls-54" d="M457.67,333.17c-2.27-20.88-8.14-41.26-17-60.68l-6.26-11.33c-.6-1.09-2.29-2.21-1.67-3.84,15.88,16.55,24.2,38.37,26,61.66l.25,19.88c-1.42-1.82-1.1-3.76-1.31-5.68Z"/>
    <path class="cls-35" d="M57.62,150.68l-13.02,15.29c-3.38-8.81-4.54-21.4,2.09-25.52,1.83-1.14,6.24-2.16,7.48-.57l3.45,10.8Z"/>
    <path class="cls-26" d="M93.07,56.9c-.26.05-.7.04-.94.17-.3.18-.46.78-.62,1.24-.78,2.46-.51,5.11-1.9,7.5-5.2,18.07-8.18,36.44-9.98,55.37-.33,3.48-1.08,6.64-.59,9.87-.65.31-1.19.25-1.45.26l-.26-8.01c-1.48-25.5,4.3-50.18,16.43-72.02l-.68,5.62Z"/>
    <path class="cls-6" d="M471.03,294.44c.48-.2.53-.32.55-.52.08-.56-.07-.98-.27-1.62-4.87-15.22-9.93-29.93-17.32-43.94-3.99-7.57-7.74-14.77-13.33-21.11-.82-.93-.93-2.17-.59-3.62,20.66,22.76,29.07,43.2,33.74,73.93-1.96-.59-2.13-2.15-2.78-3.12Z"/>
    <path class="cls-28" d="M412.48,307.84c4.31,7.67,5.27,16.86,6.84,25.95-1.36-.68-1.34-2.04-1.66-2.97-7.73-21.98-19.33-42.36-35.46-59.89-1.4-1.52-3.51-1.98-3.38-4.49,9.5,7.8,18.49,16.22,25.36,26.62l8.3,14.78Z"/>
    <path class="cls-45" d="M128.36,346.45c.72,13.63-1.09,27.03-4.92,40.16-1.33,4.56-2.88,8.69-5.45,12.62-1.74,2.76-4.7,5.1-7.73,3.9,13.6-8.22,14.87-48.35,12.62-64.29,2.5,1.83,3.53,5.39,5.48,7.61Z"/>
    <path class="cls-50" d="M124,129.99l-13.65,9.09c-.79.53-1.45.81-2.26.59,5.17-12.73,11.43-25.13,19.7-37.23.11,4.05-1.57,7.65-2.26,11.65l-2,11.56c-.29,1.65-.66,3,.47,4.35Z"/>
    <path class="cls-24" d="M62.05,163.32l-14.13,17.47c-2.6,3.32-4.68,6.87-6.94,10.72.03.46.36.81.7,1.15.48.49.44,1.46.08,2.03l-5.03,3.75c-1.26-5.63-.54-10.41,2.86-14.62l20.61-25.54,1.86,5.03Z"/>
    <path class="cls-16" d="M182.27,158.49c-.14-2.4-1.73-5.37-2.74-7.18-3.97-7.16-11.94-9-19.39-5.19-12.35,6.32-18.52,17.04-21.96,16.76,4.46-8.07,10.31-15.44,18.4-20.21s17.11-3.83,22.34,3.39c2.65,3.67,3.15,8.16,3.35,12.42Z"/>
    <path class="cls-15" d="M357.69,270.42c5.95,8.08,10.43,17.24,14.64,26.36-.24.86-.94.84-1.26.25-5.53-10.4-12.52-19.26-20.38-28.18-7.31-8.3-15.52-14.68-24.69-21.15,3.15-.4,5.08,1.94,7.64,3.31,9.4,5.04,17.66,11.52,24.05,19.42Z"/>
    <path class="cls-32" d="M22.51,229.46l-8.29.36,21.56-22.65c3.29-3.46,4.89-7.9,7.06-11.82l1.59-2.87c2.48,12.72-11.41,25.44-21.87,35.8-.42.42-.1.91-.05,1.17Z"/>
    <path class="cls-3" d="M439.14,350.15c-.65.09-1.18-.69-.53-1.5-2.7-19.17-6.4-37.8-12.47-56.08-.25-.75-1.53-1.21-1.38-1.89s-.08-1.53.73-1.92c9.12,14.8,13.8,31.73,14.08,49.46l-.43,11.92Z"/>
    <path class="cls-30" d="M187.86,198.74c18.02,5,33.42,10.73,49.36,21.4-1.63.27-3.35.21-4.92-.48l-44.59-19.68c-1.17-.14-1.18-1.16.15-1.24Z"/>
    <path class="cls-61" d="M303.45,249.76l2.1,1.52c7.16,7.21,13.01,15.11,18.29,24.02.32.54-1.29,1.1-1.51.32-.1-.35.21-.89-.69-.89-3.33-4.85-7.18-9.43-11.55-13.68l-9.07-8.83-6.52-5.61-9.8-7.2c1.9-.01,3.28.84,4.74,1.6l4.73,2.46,9.28,6.28Z"/>
    <path class="cls-5" d="M35.47,237.38c-8.53,4.47-18.38,4.06-27.55.55,8.07-4.6,18.12-4.65,27.55-.55Z"/>
    <path class="cls-33" d="M257.46,241.93c5.26,4.65,7.87,11.61,10.67,18.29-1.8-1.12-2.66-2.76-3.7-4.33-6.13-9.26-14.02-16.79-22.51-24,6.43,1.76,10.87,5.92,15.54,10.04Z"/>
    <path class="cls-38" d="M27.58,269.86c-1.04.91-2.55,1.38-3.87,1.31-2.36-.12-7.83-8.33-9.77-13.94,3.01,1.58,6.55,2.3,8.7,4.45l4.94,8.18Z"/>
    <path class="cls-8" d="M311.46,108.4l-.71-.03c-.36.07-.81.1-1.08.02-.67-.2-.23-.97.02-.86.34.15.98.36,1.33-.64.56.39.6.94.44,1.51Z"/>
    <path class="cls-42" d="M300.64,34.92c.01-.52-.37-.87-.67-1.03.25-.39,1.01-.57,1.8-.38.36.09.51.73-.26,1.1-.37.18-.43.19-.87.31Z"/>
    <path class="cls-11" d="M414.46,265.74c1.19,1.1,2.13,2.41,5.11,2.94-8.28-8.95-17.07-17.97-27.37-25.42.19-1.98-3.72-3.88-6.76-6.06-8.58-5.31-16.73-10.85-26.25-15.33-16.18-7.6-32.74-12.6-50.09-16.09,19.63-2.36,38.29-.55,57.26,3.4l23.7,6.35c1.17.31,2.77,2.47,4.24,1.16,1.11.65,2.52,1.58,4.31,1.26-16.87-12.56-35.6-21.54-55.94-26.54-4.84-1.19-9.35-2.07-14.35-2.11l-26.54-.19c-1.28,1.05-2.73.55-3.83.65-17.86,1.68-34.88,6.06-53.13,9.76,15.1-8.8,32.07-13.37,48.9-14.43-.03-.67.71-.72.97-.49.77.69,1.58-1.04.99-1.15l-16.3-2.99c-13.68-2.51-22.38,1.27-30.04,2.12l-18.85,2.08c19.58-10.96,37.63-11.85,59.64-8.03,9.53,1.93,18.45,4.42,27.78,7.52,7.21-1.13,13.98-1.51,21.46-1.64,26.82-1.28,53.07,3.15,77.77,11.6.58.2,1.82.66,3.1.29-10.48-9.22-22.11-17.09-35.32-22.33l-12.28-3.99c.15-.35.06-.61.02-.88,0-.03-10.76-3.87-16.96-4.53-1.38-.15-2.45.17-2.91-1.59l13.61,1.64c30.37,3.65,59.56,24.72,77.5,48.65-27.69-13.1-55.88-21.53-86.67-22.44,14.63,6.38,28.7,12.34,41.38,22,10.03,7.55,19.36,15.04,28.22,25.02-17.72-7.29-34.73-14.64-53.32-18.94l-15.26-2.78c32.65,15.68,62.65,41.6,82.06,73.33-17.62-10.89-34.66-19.43-52.66-27.76l-17.37-8.03c11.13.41,20.78,4.03,30.38,8.41l13.79,5.57Z"/>
    <path class="cls-29" d="M367.33,142.16c3.13.84,6.77.45,10.53.25l-13-3.21c-34.78-7.9-70.45-4.21-101.7,11.33l-23.12,11.49c3.69-5.4,8.05-9.2,12.76-13.21,8.34-7.1,17.05-13.36,26.62-18.94,1.48-.86,3.61-.9,4.16-2.48,1.88-.29,4.21-1,5.89-3.01-31.97,5.71-56.38,17.17-77.96,41.14-.31-.27-.66-.14-.9.13-.26.3-.22.88-.41,1.01l-2.11,1.49c11.58-22.03,35.11-36.82,58.97-44.32,17.66-5.55,35.58-8.04,54.83-7.58-13.59,6.38-27.49,11.04-40.27,20.37,18.56-5.37,36.85-8.37,56.22-7.18,25.92,1.6,50.87,8.58,73.95,21.16-24.94-2.68-48.23-2.88-72.53.74-19.25,2.87-37.55,7.35-55.77,12.4,23.66-12.66,49.3-18.51,75.63-20.54l8.21-1.07Z"/>
    <path class="cls-25" d="M261.39,91.21c1.4-.91,4.07-1.06,4.25-3.55-28.92,11.66-50.46,27.67-67.45,53.6-.87-.16-1.01-.65-.79-1.48,3.27-12.38,7.66-23.89,12.5-35.39,1.54-1.8,3.17-4.09,4.2-6.99-6.84,4.25-15.02,12.52-18.03,18.61-1.51.19-2.56,1.36-3.57,2.54l-10.86,12.74c6-15.06,15.75-27.33,27.89-37.78,7.14-5.88,13.5-11.9,22.65-16.19l-13.48,23.19-6.36,14.41c21.81-22.2,51.25-35.52,82.46-41.62-14.69,10.75-28.2,20.99-40.81,33.27l-19.49,18.98-10.96,9.87c6.6-11.32,15.16-20.78,24.1-30.27l11.7-11.2c.89-.85,2.67-1.29,2.04-2.74Z"/>
    <path class="cls-17" d="M317.24,226.2c1.37.63,3.11,1.63,5.3.92-8.52-6.03-17.39-11.02-27.05-13.94.12-.32.19-2.98.09-1.31-3.05-.55-4.63-1.33-6.92-2.75,7.5,1.19,15.29,2.34,22.62,5.75,13,6.05,24.87,14.08,35.39,24.64-16.71-4.79-32.04-8.36-48.48-10.24l-30.37-3.47c15.87-2.71,31.9-1.95,47.97.81.7.23,1.22.3,1.44-.42Z"/>
    <path class="cls-64" d="M367.33,142.16c-7.48-2-15.54-1.32-23.64-1.99-5.15-.43-9.99.01-15.1.11-14.6.27-31.65,2.36-45.64,5.91l-17.83,4.52c-.44.11-.72.26-1.07.48-.4.25-.96-.12-.89-.65,31.26-15.54,66.92-19.23,101.7-11.33l13,3.21c-3.75.2-7.4.59-10.53-.25Z"/>
    <path class="cls-23" d="M394.3,216.68c-9.87-5.76-20.44-9.88-31.66-14.03-16.25-6.02-33.05-9.1-50.43-11-4.91-.54-9.35-1.49-14.16-1.23-.17-.18-.21-.61-.11-.66,1.11-.1,2.55.4,3.83-.65l26.54.19c5,.04,9.51.92,14.35,2.11,20.34,5,39.07,13.98,55.94,26.54-1.79.32-3.2-.61-4.31-1.26Z"/>
    <path class="cls-55" d="M372.65,168.07l12.28,3.99c13.2,5.24,24.84,13.11,35.32,22.33-1.29.37-2.52-.09-3.1-.29-23.71-15.86-50.72-24.72-79.94-28.5,12.32-2.37,24.03.37,35.45,2.47Z"/>
    <path class="cls-13" d="M392.2,243.26c10.3,7.45,19.09,16.47,27.37,25.42-2.97-.53-3.92-1.84-5.11-2.94-5.68-5.25-11.8-9.28-18.35-13.88-15.39-10.81-32.26-18.56-49.27-25.84,12.54,1.56,23.75,5.64,34.53,11.43l10.83,5.81Z"/>
    <path class="cls-46" d="M261.39,91.21l-18.17,11.76c-15.79,11.14-30.68,23.25-43.12,38.25-1.51,1.82-2.28,4.22-4.7,5.06.71-2.2,1.83-3.55,2.8-5.03,16.99-25.93,38.53-41.94,67.45-53.6-.18,2.49-2.85,2.64-4.25,3.55Z"/>
    <path class="cls-44" d="M283.57,127.4l-2.7.42c-25.12,9.95-47.03,20.74-68.58,37.75-.36.29-.6.13-.79-.03,21.58-23.97,45.98-35.43,77.96-41.14-1.68,2.01-4.01,2.72-5.89,3.01Z"/>
    <path class="cls-34" d="M295.49,213.19c9.65,2.92,18.53,7.91,27.05,13.94-2.19.7-3.92-.29-5.3-.92-15.62-7.19-32.24-12.14-49.47-14.62,3.7-2.21,7.3-1.03,10.88-.66,5.92.62,11.5.65,16.84,2.26Z"/>
    <path class="cls-48" d="M192.06,86.53c-8,11.94-14.62,24.22-21.47,36.61.84,1.24-1.32,1.73-1.18,1.1,4.04-17.77,10.87-28.79,24.15-40.97.41,1.52-.85,2.28-1.51,3.26Z"/>
    <path class="cls-27" d="M293.71,185.09c-1.24.21-2.8-.79-3.9-.83l-24.7-.86-14.36.16c-.84,0-1.34-.05-1.41-.98,7.66-.84,16.35-4.63,30.04-2.12l16.3,2.99c.6.11-.22,1.84-.99,1.15-.26-.24-1.01-.19-.97.49Z"/>
    <path class="cls-2" d="M209.9,104.39l-16.54,19.33c.91,1.44-.43,1.39-.77,1.59-.32.19-1.23.23-.91-.43l4.38-8.88c3.01-6.1,11.18-14.36,18.03-18.61-1.03,2.91-2.66,5.2-4.2,6.99Z"/>
    <path class="cls-60" d="M76.4,207.91c-2.74-3.95-1.78-10.3,1.62-13.4-.25,2.34-.2,4.46.77,6.47.52,1.09,1.09,2.58,2.07,2.97,3.88,1.52,12.05-4.86,17.69-8.21,10.14-6.02,20.49-7.56,31.64-1.12l-14.67,2.39c1.81,6.75.53,14.14-5.51,18-7.09,4.53-15.8,1.51-19.96-5.57-4.81,2.88-10.78,2.58-13.64-1.54ZM110.45,203.62c.51-1.55-.05-2.75-1.01-3.35-1.46-.89-4.91.93-5.52,1.7-1.32,1.69.49,4.17,1.94,4.6,2.01.6,3.79-.51,4.59-2.96Z"/>
    <path class="cls-49" d="M171.78,227.93c-.53,21.47-11.55,36.1-33.03,41.21,1.53-2.42,3.88-3.09,5.69-4.33,16.52-11.39,24.52-31.08,21.5-50.91-.02-.45-.09-1.09.52-1.4,2.98,5.09,3.64,10.46,5.32,15.43Z"/>
    <path class="cls-60" d="M174.48,149.81c-.34,1.07-1.7.97-2.83,1.28-6.07,1.65-10.39,6.4-12.98,11.9,3.24.26,5.71.2,8.16,1.62,3.19,1.85-.46,10.97-4.46,15.7l-4.5,2.14c1.51-4.47,3.21-8.56,3.67-13.11-5.25.09-8.87,1.26-13.86,2.61,3.14-13.67,15.81-27.98,26.79-22.14Z"/>
    <path class="cls-20" d="M144.44,264.82c-.75-.31-.62-.95-.05-1.1,8-7.47,12.57-17.05,16.08-26.93,1.57-4.43,4.08-9.73,3.75-15.05l.86-1.72-.38-2.51c-.19-1.22.51-2.93,1.25-3.6,3.02,19.83-4.98,39.53-21.5,50.91Z"/>
    <path class="cls-52" d="M122.86,240.02c7.92-5.73,14.17-11.6,18.52-20.62.43,10.35-7.48,19.71-18.52,20.62Z"/>
    <path class="cls-43" d="M117.13,216.9c-5.19,7.49-15.97,7.9-22.88,3.37,8.66,1.03,15.92.06,22.88-3.37Z"/>
    <path class="cls-22" d="M78.78,200.98c-.97-2.01-1.02-4.12-.77-6.47.41.54,1.51.34,1.03-.52.72-1.81,2-3.83,4.45-4.22-2.47,3.76-4.02,7.19-4.72,11.2Z"/>
    <path class="cls-18" d="M110.45,203.62c-.81,2.45-2.58,3.55-4.59,2.96-1.45-.43-3.26-2.92-1.94-4.6.61-.78,4.06-2.59,5.52-1.7.97.59,1.53,1.8,1.01,3.35Z"/>
  </g>
</svg>