<?xml version="1.0" encoding="UTF-8"?>
<svg id="Layer_1" data-name="Layer 1" xmlns="http://www.w3.org/2000/svg" viewBox="0 0 274.29 251.7">
  <defs>
    <style>
      .cls-1 {
        fill: #21313a;
      }

      .cls-2 {
        fill: #44535a;
      }

      .cls-3 {
        fill: #435158;
      }

      .cls-4 {
        fill: #435259;
      }

      .cls-5 {
        fill: #072523;
      }

      .cls-6 {
        fill: #46545c;
      }

      .cls-7 {
        fill: #f92e87;
      }

      .cls-8 {
        fill: #06231d;
      }
    </style>
  </defs>
  <g id="Generative_Object" data-name="Generative Object">
    <path class="cls-1" d="M218.54,110.16l7.07,5.83c3.29,2.71,5.87,6.2,6.67,10.42.87,4.55,2.91,8.15,6.58,11.06l20.42,16.19c4.09,3.24,8.01,6.34,11.5,10.25,4.81,5.4,4.21,9.95.97,15.93-2.16,3.98-3.96,7.87-5.38,12.11-2.18,6.53-5.46,9.43-11.91,11.47-3.35,8.29-7.83,15.14-16.92,17.48s-17.1-.05-25.49-2.79c-10.41-3.4-20.72-5.74-31.54-2.68-6.93,1.96-12.41,6.37-16.04,12.56-4.24,7.22-6.72,15.06-7.99,23.71l-9.86-7.48c-10.34-7.84-20.83-15.06-31.94-21.82-23.28-14.18-50.01-23.46-77.91-19.04,5.58-9.23,11.92-17.42,19.17-25.12l3.29-3.18c-14.68,3.41-28.83,8.54-42.45,15.24-.3.15-.4-.35-.24-.39.09-.02.19-.14.36-.11.55-.09.82-.65,1.22-1.03l5.4-5.13c8.14-7.74,16.73-14.6,25.96-21.06,10.51-7.35,21.41-13.41,33.4-17.51l3.6-1.09c-9.97-3.4-20.14-5.28-30.49-6.05,0-.11.03-.29-.07-.6l-4.73-.12c-.38,0-.74-.33-1.09-.69,11.78-4.54,24.15-7.72,36.93-9.65.38-.06.66.05.73-.06s.04-.36.01-.45l5.32-.72-6.66-4.14-6.09-3.36c-8.2-4.53-16.95-7.78-25.71-10.82.09-.47-.16-.68-.74-.48.2-.96.88-1.07,1.76-1.05l9.27.24,5.35.17c.32.02.58.03.62-.31l15.89,1.28,8.58.97,1.06-6.86-2.93-2.83c-5.95-5.75-12.41-10.76-19.14-15.15-.06-.71-.66-1.05-1.27-1.36-.99-.49-1.78-1.36-2.46-1.87l-2.76-2.1,7.24,1.33,11.64,2.9c.46.11,1.06-.01,1.7.2l8.5,2.91,6.52,2.53c.36.14.39.34.54.51.5.59,1.47.99,2.26.96,1.11-.04,2.12.71,3.41,1.41l1.06-6.75c2.43-.99,4.58-.1,6.82-.25-4.82-7.56-10.39-14.51-16.48-21.28l-7.5-8.34c21.41,10.63,41.54,23.31,60.05,40.16l-3.25-10.13c-6.88-17.02-16.58-32.43-28.57-46.73l6.22,4.24c9.02,6.72,17.04,14.31,25.1,22.19,7.57,7.4,14.44,15.1,21.52,22.92l5.47,6.04c-.75-8.14-2.6-15.74-4.69-23.64-2.46-9.3-5.67-17.9-9.86-26.65l6.86,7.87,3.55,4.34c9.57,12.38,18.47,25.02,27.04,38.06,4.38,6.66,9.44,12.38,15.52,17.39ZM131.21,133.85c-6.46-3.04-12-8.04-15.1-14.87.54-.46.08-.93-.27-1.1-1.46-3.21-1.91-8.08-.68-11.84,1.69-5.15,6.39-8.63,11.87-7.9,6.67.88,11.7,8.21,13.49,14.43,1.79-6.64.5-13.5-4.39-17.73-4.54-3.93-10.46-5.06-16.1-3.78.07-.7-.8-.33-.23.06-10.89,3.22-14.62,13.45-13.29,24.75-.86-.07-.47.77.06.56l.86,3.63c-.76-.1-.45.68.02.41.65.81.59,1.79.87,2.39,3.64,7.99,12.22,13.96,22.21,14.66l9.53.09c-1.35-.92-3.02-.69-2.38-1.46-.58.7-4.11-1.18-6.49-2.3ZM219.36,127.89l-7.33-1.91-10.37-2.95c-6.07-1.72-11.83-3.66-18.16-4.54-1.77-.25-3.99-.69-5.6-.11-4.79,3.3-8.65,7.57-11.91,12.13,5.03-1.28,9.34-2.7,14.26-2.9,6.23-.26,12.16.83,18.17,2.18l9.41,2.1c4.33.97,9.08-.03,11.53-4.01ZM246.56,161.83l-4.61-2.28c.57-.41-.1-.64-.2-.51-.08.1-.15.28-.52.34.11-.62-.4-.92-.77-.4l-2.72-1.38c.54-.4-.09-.67-.22-.5-.08.1-.18.26-.47.35.03-.48-.17-.8-.67-.33.04-.74-.46-.86-.8-.41l-6.43-3.44-5.5-2.84c.02-.43-.49-.08-.64-.57-.91-.03-1.91-.62-2.45-1.35-1.1-.04-1.67-.74-2.75-1.23.25-.3-.12-.76-.4-.24l-3.58-2.1c.38-.38-.21-.64-.3-.16l-3.5-2.02c.26-.33-.13-.76-.4-.27l-5.54-3.48c-.16.1-.47.3-.66.57.88,1.2,1.55,2.19,1.8,3.52-1.12,1.11-2.28,1.92-3.41,2.61-.57-.34-1.23.13-1.4.46-1.37,1-3.5.51-5.15-.22-3.27-1.44-2.9-4.06-5.47-6.45-.25-.43-.64.14-1.6-.18.32-.32-.5-1.08-.53-.17l-3.65-.09c-.3.3-.48.95-1.37,1.05,1.6,1.71,3.07,4.48,5.65,6.39,4.47,3.32,9.26,5.91,14.23,8.45,6.74,3.44,12.93,7.37,19.32,11.47l8.13,5.21c5.43,3.48,10.65,7.07,15.54,11.36,2.4,2.11,4.37,4.33,6.01,7,.83,1.35,1.97,2.43,3.4,2.99-.33.55.55.57.23,0,2.46.29,4.34-1.35,5.18-3.77s.35-5.39-1.93-6.5c-1.82-.88-5.14,1.21-8.76-1.57-2.82-2.17-5.57-7.72-4.2-9.03,1.81-1.74,4.42-2.24,6.73-2.45l7.78-.71c.45-.04.71-.58,1.5-.17.55.28,1.35.59,1.89.17l-2.32-.78-9.47-4.06c.13-.58-.36-.49-.56-.43-1.11-.09-1.85-.76-2.95-1.15.13-.32-.17-.77-.57-.16-.05-1.03-.67-.6-.91-.53ZM125.44,190.89c9.72,11.15,23.5,12.16,37.63,9.51-4.14-.46-7.96-1.3-11.61-2.53.55-.4-.28-.78-.25-.08l-5.73-2.23c0-.47-.53-.66-.82-.78-.17.52-.61.17-.45-.14.06-.11-.35-.34-.41.12-2.72-1.47-5.16-3.18-7.73-5.21-11.86-10.16-13.53-25.51-11.38-39.82-.17.76-.68.67-.91.73-.19.05.27.58.18.74l-1.62,3.21c-.46-.5-.67.15-.53.26.1.08.29.17.34.49-.65-.05-.92.39-.37.92-.42-.04-1.19.45-.52.77l-1.19,3.76c-.11-.37-.52-.28-.62-.08-.14.12-.15.32-.05.46s.29.2.45.13c.31.57-.15.85-.49.58-.09-.07-.14.48.35.38-2.45,10.24-1.27,20.8,5.7,28.81ZM240.25,206.42c3.28,1.12,6.98-2.96,7.58-6.87-17.8-3.67-35.28-4.77-51.24,2.96-.14-.47-.71-.35-.74-.14-.02.13.09.57-.5.44-.27.28.04.58.32.41l.58-.33c12.35-2.06,24.99-1.64,37.21,1.21l6.8,2.32Z"/>
    <path class="cls-7" d="M218.54,110.16c-6.08-5.01-11.15-10.72-15.52-17.39-8.57-13.04-17.47-25.68-27.04-38.06l-3.55-4.34-6.86-7.87c4.19,8.75,7.4,17.36,9.86,26.65,2.1,7.9,3.94,15.5,4.69,23.64l-5.47-6.04c-7.08-7.82-13.95-15.51-21.52-22.92-8.06-7.88-16.08-15.48-25.1-22.19l-6.22-4.24c11.99,14.3,21.69,29.72,28.57,46.73l3.25,10.13c-18.5-16.85-38.64-29.53-60.05-40.16l7.5,8.34c6.09,6.77,11.66,13.72,16.48,21.28-2.24.15-4.39-.75-6.82.25l-1.06,6.75c-1.29-.7-2.3-1.46-3.41-1.41-.6-.53-1.44-1.03-2.26-.96-.14-.17-.18-.37-.54-.51l-6.52-2.53-8.5-2.91c-.64-.22-1.24-.09-1.7-.2.09-.1.07-.22-.04-.25-7.35-2.27-14.79-3.82-22.62-5.27.29.62,1.05.61,1.6.97l8.66,5.64c6.73,4.39,13.19,9.39,19.14,15.15l2.93,2.83-1.06,6.86-8.58-.97-15.89-1.28-3.39-.18-8.23-.29-11.18-.12,6.53,2.03c8.76,3.04,17.51,6.3,25.71,10.82l6.09,3.36,6.66,4.14-5.32.72c-14.22,1.93-28.01,5.65-41.28,11.15l8.56.2.94.22c10.35.77,20.52,2.65,30.49,6.05l-3.6,1.09c-11.99,4.1-22.89,10.16-33.4,17.51-9.23,6.46-17.82,13.32-25.96,21.06l-5.4,5.13c-.4.38-.67.94-1.22,1.03-.24-.53.03-.67.24-1.07,9.91-18.13,24.74-32.5,43.18-42.28-18.79-2.69-37.09-1.46-54.52,3.14.11-.25.31-.55.44-.67l4.96-4.19c16.2-12.2,34.47-18.99,54.5-23.99-11.15-4.62-22.35-7.73-33.93-9.86-10.52-1.93-20.81-2.37-31.8-2.11,4.4-2.7,8.71-4.54,13.51-6.15,18.67-6.29,38.24-8.26,57.98-6.78l7.02.53c-22.39-15.71-47.31-25.72-74.38-30.99,14.02-4.74,30.26-4.85,45.08-3.57,18.85,1.62,36.46,7.15,53.51,15.23-7.43-8.99-15.92-15.8-24.6-22.57-15.87-11.78-32.96-21.01-51.41-28.2l5.99-.09c20.08,1.43,39.54,6.28,57.96,14.23,13.8,5.96,26.36,13.67,38.84,22.72-8.57-13.28-18.86-24.85-30.46-35.37-10.6-9.61-22.02-17.63-34.2-25.36,7.46.89,14.12,2.86,20.99,5.27,29.6,10.4,54.09,29.03,74.99,53.23-4.05-11.83-9.54-22.55-16.26-32.88-4.84-7.43-9.85-14.32-15.53-21.1-1.97-2.35-3.91-4.26-5.62-6.9l5.27,2.39c20.66,10.42,39.42,26.79,53.13,45.79,4.84,6.71,8.95,13.58,13.06,20.77-1.77-9.96-4.6-19.16-7.76-28.63l-5.31-15.92c9.74,9.95,17.69,20.98,23.36,33.46,7.01,15.43,11.22,32.87,13.39,49.92.1.82.56,1.66,0,2.37Z"/>
    <path class="cls-4" d="M246.56,161.83c.24-.06.86-.5.91.53.4-.62.7-.16.57.16,1.1.38,1.84,1.06,2.95,1.15.2-.06.69-.15.56.43l9.47,4.06,2.32.78c-.54.42-1.34.11-1.89-.17-.79-.41-1.05.13-1.5.17l-7.78.71c-2.31.21-4.91.7-6.73,2.45-1.36,1.31,1.38,6.87,4.2,9.03,3.62,2.78,6.94.68,8.76,1.57,2.29,1.11,2.8,4.02,1.93,6.5s-2.72,4.06-5.18,3.77c.31.58-.57.56-.23,0-1.43-.56-2.57-1.64-3.4-2.99-1.64-2.67-3.61-4.89-6.01-7-4.89-4.29-10.11-7.87-15.54-11.36l-8.13-5.21c-6.39-4.1-12.58-8.03-19.32-11.47-4.97-2.54-9.75-5.14-14.23-8.45-2.58-1.91-4.05-4.69-5.65-6.39.89-.1,1.06-.75,1.37-1.05l3.65.09c.02-.92.84-.15.53.17.96.32,1.35-.25,1.6.18,2.57,2.39,2.21,5.01,5.47,6.45,1.64.73,3.78,1.21,5.15.22.16-.33.83-.8,1.4-.46,1.13-.69,2.29-1.5,3.41-2.61-.25-1.33-.92-2.32-1.8-3.52.18-.27.49-.47.66-.57l5.54,3.48c.27-.49.66-.06.4.27l3.5,2.02c.08-.48.68-.22.3.16l3.58,2.1c.29-.52.65-.06.4.24,1.08.48,1.65,1.19,2.75,1.23.54.73,1.54,1.32,2.45,1.35.15.49.66.14.64.57l5.5,2.84,6.43,3.44c.34-.45.84-.33.8.41.5-.47.7-.15.67.33.29-.09.39-.25.47-.35.13-.17.76.1.22.5l2.72,1.38c.37-.52.88-.23.77.4.36-.06.44-.24.52-.34.1-.13.77.1.2.51l4.61,2.28Z"/>
    <path class="cls-6" d="M131.21,133.85c2.38,1.12,5.9,3,6.49,2.3-.64.76,1.03.53,2.38,1.46l-9.53-.09c-10-.7-18.57-6.67-22.21-14.66-.27-.6-.22-1.57-.87-2.39-.48.27-.78-.51-.02-.41l-.86-3.63c-.53.2-.92-.63-.06-.56-1.33-11.3,2.4-21.52,13.29-24.75-.57-.39.29-.77.23-.06,5.64-1.27,11.56-.15,16.1,3.78,4.88,4.23,6.18,11.09,4.39,17.73-1.79-6.22-6.82-13.54-13.49-14.43-5.49-.73-10.18,2.75-11.87,7.9-1.23,3.76-.78,8.63.68,11.84.35.18.81.64.27,1.1,3.1,6.83,8.64,11.83,15.1,14.87Z"/>
    <path class="cls-2" d="M125.44,190.89c-6.98-8-8.16-18.57-5.7-28.81-.5.1-.45-.45-.35-.38.34.27.8-.01.49-.58-.16.07-.35.01-.45-.13s-.09-.34.05-.46c.1-.2.51-.29.62.08l1.19-3.76c-.66-.32.1-.81.52-.77-.55-.52-.28-.97.37-.92-.05-.32-.24-.41-.34-.49-.14-.11.07-.76.53-.26l1.62-3.21c.08-.17-.37-.69-.18-.74.23-.06.74.03.91-.73-2.15,14.31-.48,29.66,11.38,39.82,2.58,2.03,5.01,3.74,7.73,5.21.06-.45.46-.23.41-.12-.16.31.27.66.45.14.29.12.82.31.82.78l5.73,2.23c-.03-.7.8-.32.25.08,3.65,1.23,7.46,2.07,11.61,2.53-14.13,2.65-27.91,1.64-37.63-9.51Z"/>
    <path class="cls-2" d="M219.36,127.89c-2.45,3.97-7.2,4.97-11.53,4.01l-9.41-2.1c-6.01-1.35-11.93-2.44-18.17-2.18-4.92.2-9.23,1.62-14.26,2.9,3.26-4.56,7.12-8.83,11.91-12.13,1.61-.58,3.83-.14,5.6.11,6.33.88,12.09,2.82,18.16,4.54l10.37,2.95,7.33,1.91Z"/>
    <path class="cls-3" d="M240.25,206.42l-6.8-2.32c-12.22-2.85-24.86-3.28-37.21-1.21l-.58.33c-.28.16-.59-.13-.32-.41.59.13.48-.31.5-.44.03-.21.6-.33.74.14,15.96-7.73,33.44-6.63,51.24-2.96-.6,3.91-4.3,7.99-7.58,6.87Z"/>
    <path class="cls-8" d="M87.78,126.36c.03.09.06.34-.01.45s-.35,0-.73.06c-12.79,1.93-25.16,5.11-36.93,9.65.34.36.71.68,1.09.69l4.73.12c.1.31.06.49.07.6l-.94-.22-8.56-.2c13.27-5.5,27.07-9.22,41.28-11.15Z"/>
    <path class="cls-8" d="M86.77,82.19l-11.64-2.9-7.24-1.33,2.76,2.1c.67.51,1.47,1.38,2.46,1.87.61.3,1.21.64,1.27,1.36l-8.66-5.64c-.55-.36-1.31-.35-1.6-.97,7.83,1.44,15.27,2.99,22.62,5.27.11.03.13.15.04.25Z"/>
    <path class="cls-5" d="M70.91,105.87c-.04.34-.3.34-.62.31l-5.35-.17-9.27-.24c-.89-.02-1.56.09-1.76,1.05.58-.2.83.02.74.48l-6.53-2.03,11.18.12,8.23.29,3.39.18Z"/>
    <path class="cls-8" d="M106.27,89.3c-.79.03-1.76-.37-2.26-.96.82-.07,1.66.43,2.26.96Z"/>
  </g>
</svg>